<svg width="355" height="231" viewBox="0 0 355 231" fill="none" xmlns="http://www.w3.org/2000/svg">
<path d="M5.50387 1.22923H23.5623L28.9286 50.5683H18.4523L15.1831 13.7671L15.2448 7.70519H13.7407L13.679 13.7671L10.538 50.5683H0L5.50387 1.22923ZM6.15865 27.731H22.8411L25.5267 37.8106H3.40674L6.15865 27.731Z" fill="#131314"/>
<path d="M39.4654 1.22911H50.9808C53.4939 1.17318 55.9829 1.76547 58.2402 2.95666C60.2577 4.02802 61.9243 5.73608 63.0182 7.85331C63.668 9.03814 64.1479 10.3218 64.4416 11.6611C64.7803 13.3276 64.9395 15.0308 64.9161 16.7367C64.933 18.4185 64.7739 20.0972 64.4416 21.7406C64.1641 23.0854 63.6832 24.372 63.0182 25.5486C61.8591 27.643 60.1839 29.3502 58.1785 30.481C55.9608 31.7353 53.4852 32.3663 50.9808 32.3158H46.4496V22.3079H50.8337C51.5396 22.3222 52.2376 22.1465 52.8645 21.7968C53.4499 21.4595 53.9412 20.9601 54.2879 20.3502C54.5231 19.8906 54.6836 19.3912 54.7624 18.8733C54.8565 18.1726 54.8993 17.465 54.8905 16.7571C54.8981 16.0374 54.8552 15.3181 54.7624 14.6053C54.6937 14.0959 54.5325 13.6059 54.2879 13.1638C53.9587 12.5299 53.4637 12.0144 52.8645 11.6815C52.2246 11.3349 51.5167 11.1596 50.8005 11.1704H49.2964V50.5682H39.418L39.4654 1.22911Z" fill="#131314"/>
<path d="M66.6797 1.22923H76.5629V40.632H86.9017V50.5683H66.6797V1.22923Z" fill="#131314"/>
<path d="M93.4201 1.22923H111.483L116.845 50.5683H106.378L103.104 13.7671L103.171 7.70519H101.666L101.6 13.7671L98.459 50.5683H87.9258L93.4201 1.22923ZM94.0749 27.731H110.762L113.443 37.8106H91.3277L94.0749 27.731Z" fill="#131314"/>
<path d="M114.84 1.22923H125.373L129.036 16.5271V22.446H130.54L130.478 16.5271L134.208 1.22923H144.608L133.88 36.8956H125.568L114.84 1.22923ZM124.804 32.316H134.616V50.5683H124.785L124.804 32.316Z" fill="#131314"/>
<path d="M146.247 1.22926H159.85C162.072 1.16542 164.281 1.60954 166.331 2.53254C168.014 3.30683 169.431 4.62487 170.388 6.3046C170.904 7.32028 171.278 8.41232 171.498 9.54532C171.745 11.0345 171.854 12.546 171.826 14.0584C171.848 15.369 171.75 16.679 171.532 17.9687C171.333 18.9834 170.967 19.9512 170.45 20.8258C169.75 22.0958 168.76 23.1516 167.574 23.8926C166.35 24.6695 164.691 25.0342 162.597 24.9865V26.6067C164.78 26.6067 166.459 26.9935 167.636 27.767C168.796 28.5218 169.763 29.5757 170.45 30.8337C170.961 31.7205 171.317 32.7013 171.498 33.7268C171.733 35.0506 171.843 36.3966 171.826 37.7442C171.852 39.2429 171.742 40.7408 171.498 42.2166C171.282 43.3638 170.908 44.4698 170.388 45.498C169.431 47.1762 168.013 48.4927 166.331 49.265C164.281 50.1901 162.072 50.6343 159.85 50.5683H146.242L146.247 1.22926ZM159.888 40.2794C160.39 40.0467 160.813 39.652 161.098 39.1498C161.336 38.7302 161.497 38.265 161.572 37.7799C161.671 37.0197 161.714 36.2525 161.7 35.4851C161.709 34.8128 161.666 34.1409 161.572 33.4762C161.509 33.0213 161.376 32.5809 161.179 32.173C160.893 31.6285 160.442 31.2061 159.902 30.9768C159.373 30.7452 158.808 30.6255 158.237 30.6241H152.871V21.2501H158.237C158.815 21.246 159.384 21.1009 159.902 20.8258C160.438 20.5542 160.884 20.1117 161.179 19.5582C161.385 19.1783 161.519 18.7578 161.572 18.3213C161.666 17.6567 161.709 16.9848 161.7 16.3125C161.714 15.5468 161.671 14.7811 161.572 14.0227C161.496 13.5362 161.335 13.0697 161.098 12.6478C160.811 12.1481 160.389 11.7554 159.888 11.5232C159.361 11.2829 158.794 11.1629 158.223 11.1705H156.125V40.632H158.223C158.794 40.6397 159.361 40.5197 159.888 40.2794Z" fill="#131314"/>
<path d="M181.513 50.64C180.038 50.0525 178.706 49.1124 177.617 47.8902C176.501 46.546 175.665 44.9601 175.164 43.2389C174.472 41.0932 174.043 38.8594 173.888 36.5942C173.651 33.9159 173.531 30.338 173.527 25.8605C173.527 22.7937 173.572 20.2092 173.66 18.1067C173.719 16.2747 173.893 14.4492 174.182 12.6428C174.413 11.2432 174.741 9.86422 175.164 8.51783C175.667 6.7977 176.503 5.21221 177.617 3.86651C178.708 2.64759 180.04 1.70795 181.513 1.1167C183.294 0.422111 185.179 0.0875941 187.073 0.130133C188.99 0.0835728 190.897 0.418079 192.701 1.1167C194.186 1.71548 195.521 2.68193 196.596 3.93814C197.673 5.26037 198.506 6.79234 199.049 8.45144C199.727 10.633 200.166 12.892 200.359 15.183C200.654 18.7329 200.784 22.2966 200.748 25.8605C200.748 28.8659 200.694 31.4216 200.586 33.5274C200.504 35.3696 200.328 37.2055 200.06 39.027C199.849 40.4675 199.51 41.883 199.049 43.2541C198.506 44.9132 197.673 46.4451 196.596 47.7674C195.522 49.0236 194.187 49.9888 192.701 50.5838C190.898 51.2849 188.99 51.6192 187.073 51.5701C185.182 51.6333 183.297 51.318 181.513 50.64ZM188.184 41.4397C188.518 41.2519 188.81 40.9865 189.038 40.6628C189.32 40.269 189.541 39.8287 189.693 39.3592C190.045 38.4485 190.266 37.485 190.347 36.5021C190.477 35.3061 190.553 33.8034 190.575 31.994C190.575 30.1846 190.608 28.1503 190.608 25.8962C190.608 22.2297 190.553 19.3333 190.442 17.207C190.421 15.5887 190.168 13.9837 189.693 12.4484C189.541 11.9789 189.32 11.5389 189.038 11.1451C188.81 10.8213 188.518 10.556 188.184 10.3682C187.836 10.1945 187.456 10.1105 187.073 10.1228C186.691 10.1105 186.311 10.1945 185.963 10.3682C185.635 10.5521 185.354 10.8186 185.142 11.1451C184.881 11.5468 184.672 11.9853 184.521 12.4484C184.173 13.3445 183.963 14.2959 183.899 15.2648C183.792 16.4404 183.727 17.921 183.705 19.7065C183.683 21.492 183.671 23.5605 183.671 25.9117C183.671 29.5782 183.725 32.4745 183.833 34.6008C183.862 36.2132 184.093 37.8137 184.521 39.3592C184.672 39.8223 184.881 40.261 185.142 40.6628C185.354 40.9892 185.635 41.2558 185.963 41.4397C186.311 41.6133 186.691 41.6973 187.073 41.685C187.456 41.6989 187.836 41.6166 188.184 41.4447V41.4397Z" fill="#131314"/>
<path d="M210.497 50.64C209.022 50.0525 207.69 49.1124 206.602 47.8902C205.485 46.546 204.649 44.9601 204.149 43.2389C203.457 41.0932 203.028 38.8594 202.872 36.5942C202.635 33.9159 202.515 30.338 202.512 25.8605C202.512 22.7937 202.556 20.2092 202.645 18.1067C202.703 16.2747 202.877 14.4492 203.167 12.6428C203.397 11.2432 203.726 9.86422 204.149 8.51783C204.651 6.7977 205.487 5.21221 206.602 3.86651C207.693 2.64759 209.024 1.70795 210.497 1.1167C212.278 0.421655 214.164 0.0871243 216.058 0.130133C217.974 0.0835728 219.882 0.418079 221.685 1.1167C223.171 1.71548 224.505 2.68193 225.581 3.93814C226.658 5.26037 227.49 6.79234 228.034 8.45144C228.711 10.6326 229.149 12.8919 229.338 15.183C229.638 18.7326 229.77 22.2964 229.732 25.8605C229.732 28.8659 229.678 31.4216 229.571 33.5274C229.488 35.3696 229.313 37.2055 229.044 39.027C228.831 40.467 228.493 41.8823 228.034 43.2541C227.49 44.9132 226.658 46.4451 225.581 47.7674C224.506 49.0236 223.171 49.9888 221.685 50.5838C219.882 51.2849 217.974 51.6192 216.058 51.5701C214.167 51.6338 212.281 51.3184 210.497 50.64ZM217.168 41.4397C217.503 41.2519 217.794 40.9865 218.022 40.6628C218.304 40.269 218.525 39.8287 218.677 39.3592C219.03 38.4485 219.251 37.485 219.332 36.5021C219.458 35.3061 219.534 33.8034 219.56 31.994C219.56 30.1846 219.593 28.1503 219.593 25.8962C219.593 22.2297 219.537 19.3333 219.427 17.207C219.405 15.5887 219.152 13.9837 218.677 12.4484C218.525 11.9789 218.304 11.5389 218.022 11.1451C217.794 10.8213 217.503 10.556 217.168 10.3682C216.821 10.1945 216.441 10.1105 216.058 10.1228C215.675 10.1105 215.295 10.1945 214.948 10.3682C214.62 10.5521 214.338 10.8186 214.127 11.1451C213.865 11.5468 213.656 11.9853 213.505 12.4484C213.157 13.3445 212.947 14.2959 212.884 15.2648C212.776 16.4404 212.711 17.921 212.689 19.7065C212.667 21.492 212.656 23.5605 212.656 25.9117C212.656 29.5782 212.71 32.4745 212.817 34.6008C212.846 36.2132 213.078 37.8137 213.505 39.3592C213.656 39.8223 213.865 40.261 214.127 40.6628C214.338 40.9892 214.62 41.2558 214.948 41.4397C215.295 41.6133 215.675 41.6973 216.058 41.685C216.44 41.6989 216.82 41.6166 217.168 41.4447V41.4397Z" fill="#131314"/>
<path d="M232.546 1.22923H242.406V13.6343L239.331 23.9949L242.406 27.8027V50.5683H232.527L232.546 1.22923ZM238.046 23.9949H240.793L249.623 1.22923H260.289L248.185 29.7755L246.681 26.5351L241.903 38.9402L238.046 23.9949ZM241.182 25.5283L249.362 20.1717L260.028 50.5479H249.623L241.182 25.5283Z" fill="#131314"/>
<path d="M270.367 1.22923H290.845V11.1705H280.246V20.9688H290.257V30.9206H280.246V50.5838H270.367V1.22923Z" fill="#131314"/>
<path d="M300.133 50.64C298.66 50.0525 297.329 49.1123 296.242 47.8902C295.124 46.5472 294.288 44.9609 293.789 43.2389C293.095 41.0939 292.666 38.8598 292.513 36.5942C292.269 33.9159 292.149 30.338 292.152 25.8605C292.152 22.7937 292.195 20.2092 292.281 18.1067C292.343 16.2748 292.519 14.4494 292.807 12.6428C293.038 11.2432 293.366 9.86422 293.789 8.51783C294.29 6.79682 295.126 5.21093 296.242 3.86651C297.332 2.64768 298.661 1.70801 300.133 1.1167C301.914 0.422111 303.8 0.0875941 305.694 0.130133C307.61 0.0835728 309.518 0.418079 311.321 1.1167C312.807 1.71428 314.142 2.68091 315.216 3.93814C316.295 5.25903 317.128 6.79138 317.669 8.45144C318.351 10.6317 318.791 12.8913 318.979 15.183C319.276 18.7327 319.408 22.2965 319.373 25.8605C319.373 28.8659 319.318 31.4216 319.207 33.5274C319.123 35.3693 318.949 37.205 318.685 39.027C318.47 40.4672 318.13 41.8825 317.669 43.2541C317.128 44.9141 316.295 46.4465 315.216 47.7674C314.143 49.0247 312.808 49.99 311.321 50.5838C309.518 51.2849 307.61 51.6192 305.694 51.5701C303.803 51.6333 301.917 51.318 300.133 50.64ZM306.809 41.4397C307.141 41.2503 307.431 40.9851 307.658 40.6628C307.94 40.269 308.161 39.8287 308.313 39.3592C308.666 38.4485 308.886 37.485 308.968 36.5021C309.114 35.0045 309.19 33.4999 309.195 31.994C309.221 30.1846 309.232 28.152 309.229 25.8962C309.229 22.2297 309.175 19.3333 309.067 17.207C309.047 15.5882 308.793 13.9827 308.313 12.4484C308.161 11.9789 307.94 11.5389 307.658 11.1451C307.431 10.8227 307.141 10.5576 306.809 10.3682C306.46 10.1952 306.078 10.1112 305.694 10.1228C305.311 10.1105 304.931 10.1945 304.584 10.3682C304.257 10.5524 303.977 10.819 303.768 11.1451C303.502 11.5445 303.293 11.9835 303.146 12.4484C302.793 13.3429 302.583 14.2951 302.524 15.2648C302.414 16.4404 302.347 17.921 302.325 19.7065C302.303 21.492 302.292 23.5605 302.292 25.9117C302.292 29.5782 302.347 32.4745 302.458 34.6008C302.485 36.2134 302.716 37.8142 303.146 39.3592C303.293 39.8241 303.502 40.2634 303.768 40.6628C303.977 40.9889 304.257 41.2554 304.584 41.4397C304.931 41.6133 305.311 41.6973 305.694 41.685C306.078 41.6982 306.459 41.6159 306.809 41.4447V41.4397Z" fill="#131314"/>
<path d="M322.188 1.2293H334.486C336.888 1.15275 339.274 1.67764 341.456 2.76269C343.35 3.75017 344.932 5.31843 346.001 7.27075C346.53 8.40987 346.936 9.61028 347.211 10.8486C347.52 12.3588 347.663 13.9027 347.638 15.4488C347.651 16.7743 347.53 18.0975 347.278 19.3948C347.052 20.5316 346.667 21.6243 346.134 22.6353C345.161 24.3359 343.72 25.6671 342.011 26.4433C340.096 27.3552 338.022 27.8118 335.928 27.7823L333.898 28.9835L333.637 30.3227H329.447L329.381 21.0151H333.831C334.495 21.0302 335.15 20.8537 335.729 20.5039C336.267 20.1775 336.736 19.7334 337.105 19.2004C337.343 18.7736 337.519 18.3099 337.627 17.8255C337.758 17.2849 337.823 16.7283 337.821 16.1696C337.83 15.5889 337.776 15.009 337.66 14.4418C337.576 14.0025 337.415 13.5847 337.186 13.2101C336.89 12.5545 336.408 12.0174 335.81 11.6767C335.205 11.3325 334.529 11.1567 333.845 11.1656H332.08V50.5634H322.202L322.188 1.2293ZM331.867 25.7635L339.719 25.5538V28.5849L343.387 29.5712L348.359 50.5737H337.693L331.867 25.7635Z" fill="#131314"/>
<path d="M5.89281 109.721C4.06004 108.734 2.58675 107.115 1.70795 105.121C0.792222 103.076 0.332031 100.552 0.332031 97.5461V93.9682H10.1488V97.7046C10.1327 98.3879 10.2324 99.0684 10.443 99.7132C10.6062 100.206 10.9019 100.634 11.2923 100.945C11.752 101.253 12.2888 101.402 12.8296 101.369C13.284 101.386 13.7349 101.277 14.1391 101.052C14.4999 100.826 14.7941 100.495 14.9884 100.097C15.2345 99.7588 15.3977 99.3598 15.4629 98.9362C15.5557 98.3419 15.5986 97.7397 15.591 97.1371C15.6014 96.466 15.5697 95.795 15.4961 95.1285C15.4392 94.6668 15.2938 94.2228 15.0691 93.825L15.0026 93.6869C14.6964 93.2142 14.3343 92.7865 13.9256 92.4144C13.3975 91.9727 12.8125 91.6164 12.1891 91.3564L7.41585 88.8008C6.4339 88.2543 5.51097 87.5924 4.66389 86.8276C3.83418 86.0723 3.10746 85.1947 2.50509 84.2208C1.92644 83.0048 1.49736 81.7127 1.22873 80.3771C0.915266 78.6002 0.7738 76.7932 0.806502 74.9848C0.780904 73.1386 0.939978 71.2948 1.28097 69.4852C1.56192 68.1057 2.02526 66.7768 2.65689 65.5392C3.62626 63.6967 5.0991 62.2207 6.87494 61.3121C8.97555 60.2683 11.2715 59.7611 13.584 59.8299C16.3296 59.8299 18.6308 60.341 20.4875 61.3633C22.321 62.3733 23.7925 64.0089 24.6723 66.0146C25.6749 68.3776 26.1618 70.9566 26.0958 73.5538V77.1317H16.2173V73.3953C16.28 72.4266 16.0503 71.4621 15.5625 70.6455C15.3276 70.334 15.0263 70.088 14.6844 69.9287C14.3424 69.7694 13.9698 69.7015 13.5982 69.7305C13.1868 69.7219 12.7807 69.8311 12.4215 70.0473C12.0719 70.2569 11.7778 70.5597 11.5675 70.9265C11.3789 71.3036 11.2369 71.7057 11.1452 72.1225C11.0268 72.6771 10.971 73.2452 10.9791 73.8143C10.9622 74.5582 11.0067 75.3023 11.112 76.0378C11.1982 76.5293 11.3757 76.997 11.6339 77.4127C11.8861 77.9182 12.2453 78.3524 12.6825 78.6803C13.2009 79.0589 13.7486 79.389 14.3194 79.6668L19.2919 82.1356C20.2636 82.7215 21.1735 83.4189 22.0058 84.2158C22.8002 84.9743 23.4748 85.8667 24.0033 86.8583C24.6453 88.052 25.1081 89.3477 25.3746 90.697C25.6709 92.4761 25.8029 94.2823 25.7684 96.0894C25.7984 97.9595 25.6393 99.8276 25.2939 101.661C25.0314 103 24.5683 104.284 23.9227 105.463C22.9111 107.309 21.429 108.802 19.6525 109.767C17.8432 110.752 15.5862 111.244 12.8818 111.244C10.1773 111.244 7.84763 110.737 5.89281 109.721Z" fill="#131314"/>
<path d="M35.3408 110.283C33.8927 109.683 32.5935 108.73 31.545 107.498C30.4636 106.152 29.6411 104.588 29.1252 102.898C28.4311 100.753 28.002 98.5185 27.8489 96.2529C27.6054 93.5746 27.4852 89.9967 27.4883 85.5192C27.4883 82.4524 27.5326 79.8679 27.6211 77.7654C27.6796 75.9334 27.854 74.1079 28.1431 72.3015C28.3732 70.9018 28.7015 69.523 29.1252 68.1768C29.6267 66.4561 30.463 64.8704 31.5783 63.5255C32.6839 62.2938 34.0379 61.353 35.5353 60.7756C37.3202 60.0884 39.2057 59.7541 41.1009 59.7891C44.109 59.7891 46.5399 60.4127 48.3935 61.6599C50.2471 62.907 51.5994 64.844 52.4502 67.4712C53.3043 70.1018 53.7297 73.5094 53.7265 77.6938V80.0912H43.6014V76.9885C43.6339 75.5472 43.5242 74.1064 43.274 72.6901C43.1439 71.8795 42.8525 71.1086 42.4199 70.4307C42.2376 70.1952 42.0065 70.0092 41.7453 69.8876C41.484 69.766 41.1999 69.7123 40.9158 69.7306C40.4927 69.7108 40.0701 69.7819 39.6727 69.94C39.3373 70.1095 39.0541 70.3792 38.8566 70.7169C38.6235 71.0744 38.4157 71.4504 38.2351 71.8415C37.9187 72.69 37.7337 74.1587 37.68 76.2475C37.6262 78.3363 37.593 81.4268 37.5803 85.5192C37.5803 89.6559 37.6246 92.7808 37.7132 94.8935C37.7174 96.4483 37.9152 97.9955 38.3015 99.4936C38.4641 99.8218 38.6497 100.136 38.8566 100.434C39.0388 100.708 39.2734 100.936 39.5446 101.104C39.839 101.26 40.1655 101.334 40.4935 101.318C40.7799 101.325 41.064 101.262 41.3245 101.134C41.585 101.005 41.8151 100.815 41.9976 100.577C42.4606 99.8927 42.7531 99.0921 42.847 98.2515C43.0463 96.8171 43.1335 95.3672 43.1079 93.9171V90.9527H53.2521V93.3498C53.2521 97.6297 52.8267 101.073 51.9758 103.68C51.1249 106.286 49.7726 108.201 47.919 109.425C46.0623 110.648 43.6298 111.258 40.6217 111.255C38.8201 111.295 37.0278 110.966 35.3408 110.283Z" fill="#131314"/>
<path d="M56.2148 60.8726H68.5179C70.9183 60.7985 73.3021 61.3233 75.4831 62.406C77.3781 63.3968 78.9606 64.9664 80.0334 66.9193C80.5597 68.0594 80.9655 69.2595 81.2432 70.4972C81.548 72.0079 81.6897 73.5515 81.6655 75.0973C81.6776 76.4225 81.5583 77.7452 81.3097 79.0431C81.0827 80.1801 80.6955 81.2731 80.1615 82.2838C79.1889 83.9829 77.7495 85.3136 76.043 86.0916C74.1266 87.0035 72.0504 87.4603 69.9556 87.4308L67.9248 88.6268L67.6638 89.966H63.479L63.4126 80.6633H67.8631C68.5267 80.6777 69.1818 80.5013 69.761 80.1522C70.2985 79.8271 70.7658 79.3829 71.1323 78.8489C71.3698 78.4217 71.5458 77.9581 71.6542 77.474C71.7869 76.9336 71.8539 76.3768 71.8535 75.8179C71.8606 75.237 71.8048 74.6573 71.6874 74.0903C71.6042 73.6491 71.4431 73.2292 71.2129 72.8534C70.9177 72.1973 70.4356 71.6601 69.837 71.32C69.2339 70.9753 68.56 70.7996 67.8774 70.8089H66.1076V110.212H56.2291L56.2148 60.8726ZM65.8988 85.4068L73.7514 85.1971V88.2282L77.4143 89.2145L82.3867 110.217H71.7206L65.8988 85.4068Z" fill="#131314"/>
<path d="M84.4062 60.8727H104.885V70.7886H94.2848V80.5869H104.296V90.5284H94.2848V100.24H104.885V110.176H84.4062V60.8727Z" fill="#131314"/>
<path d="M107.71 60.8727H128.188V70.7886H117.588V80.5869H127.585V90.5284H117.574V100.24H128.173V110.176H107.695L107.71 60.8727Z" fill="#131314"/>
<path d="M131 60.8727H144.807L147.227 81.1746L147.554 102.458H148.978V60.8727H157.219V110.212H143.46L140.907 89.8433L140.646 68.6265H139.223V110.212H131V60.8727Z" fill="#131314"/>
<path d="M160.188 60.8727H169.677L170.987 91.3922L171.238 102.479H172.742V91.4126L174.251 60.8932H186.749L188.319 91.4126L188.253 102.479H189.742L189.937 91.4126L191.36 60.8932H200.85L198.169 110.232H182.625L181.249 79.9225V68.647H179.826L179.693 79.9225L178.384 110.232H162.811L160.188 60.8727Z" fill="#131314"/>
<path d="M203.758 60.8726H216.061C218.461 60.7985 220.845 61.3233 223.026 62.406C224.921 63.3968 226.503 64.9664 227.576 66.9193C228.103 68.0594 228.508 69.2595 228.786 70.4972C229.095 72.0073 229.238 73.5512 229.213 75.0973C229.224 76.4227 229.103 77.7454 228.853 79.0431C228.626 80.1801 228.238 81.2731 227.704 82.2838C226.732 83.9829 225.292 85.3136 223.586 86.0916C221.67 87.0041 219.593 87.4609 217.498 87.4308L215.472 88.6268L215.207 89.966H211.022L210.955 80.6633H215.406C216.07 80.6777 216.725 80.5013 217.304 80.1522C217.841 79.8271 218.309 79.3829 218.675 78.8489C218.912 78.4209 219.09 77.9577 219.202 77.474C219.331 76.9329 219.396 76.3765 219.396 75.8179C219.402 75.2373 219.348 74.6579 219.235 74.0903C219.152 73.6491 218.991 73.2293 218.761 72.8534C218.466 72.1987 217.986 71.6618 217.389 71.32C216.784 70.9759 216.109 70.8002 215.425 70.8089H213.66V110.212H203.777L203.758 60.8726ZM213.442 85.4068L221.294 85.1971V88.2282L224.957 89.2145L229.93 110.217H219.263L213.442 85.4068Z" fill="#131314"/>
<path d="M231.965 60.8727H241.843V110.212H231.965V60.8727Z" fill="#131314"/>
<path d="M243.477 60.8727H268.405V70.7886H243.477V60.8727ZM250.935 67.778H260.814V110.202H250.945L250.935 67.778Z" fill="#131314"/>
<path d="M270.043 60.8727H279.922V110.212H270.043V60.8727Z" fill="#131314"/>
<path d="M283.848 60.8727H297.655L300.075 81.1746L300.402 102.458H301.826V60.8727H310.067V110.212H296.308L293.76 89.8433L293.494 68.6265H292.07V110.212H283.824L283.848 60.8727Z" fill="#131314"/>
<path d="M319.769 110.6C318.683 110.09 317.712 109.333 316.922 108.382C315.931 107.177 315.146 105.792 314.602 104.293C313.936 101.945 313.541 99.5177 313.425 97.0657C313.204 94.0331 313.095 90.1688 313.098 85.4733C313.098 82.4065 313.14 79.8338 313.226 77.7552C313.287 75.935 313.463 74.1213 313.753 72.3269C313.983 70.9279 314.31 69.5493 314.73 68.2022C315.274 66.5096 316.118 64.9471 317.216 63.6021C318.295 62.3332 319.643 61.365 321.145 60.7806C322.886 60.1157 324.725 59.7938 326.573 59.83C329.587 59.83 332.008 60.4637 333.837 61.7313C335.752 63.1155 337.198 65.1314 337.96 67.4765C338.877 70.0423 339.336 73.2505 339.336 77.101V78.5783H329.325V76.4671C329.343 75.2023 329.245 73.9387 329.03 72.6951C328.916 71.8788 328.6 71.1108 328.115 70.4716C327.908 70.2405 327.658 70.0589 327.382 69.9383C327.106 69.8176 326.809 69.7607 326.511 69.7713C326.184 69.764 325.86 69.8357 325.562 69.9809C325.233 70.1628 324.951 70.4297 324.741 70.7579C324.463 71.1673 324.243 71.6186 324.086 72.0971C323.78 73.0175 323.583 73.9758 323.498 74.9492C323.37 76.1504 323.294 77.6275 323.27 79.3909C323.247 81.1543 323.237 83.2089 323.237 85.5601C323.237 89.1278 323.292 92.0055 323.403 94.1931C323.432 95.824 323.641 97.4455 324.025 99.0234C324.173 99.4947 324.394 99.9354 324.679 100.327C324.913 100.655 325.216 100.919 325.562 101.098C325.943 101.278 326.356 101.363 326.772 101.349C327.116 101.359 327.458 101.289 327.774 101.142C328.091 100.996 328.374 100.777 328.603 100.5C329.136 99.8236 329.497 99.0102 329.652 98.1389C329.889 96.8983 329.999 95.6334 329.979 94.3669V92.8335H325.913V83.8121H338.8V110.243H330.231L332.651 102.703H331.227C330.636 104.479 329.867 106.181 328.936 107.779C328.293 108.898 327.405 109.83 326.35 110.493C325.35 111.046 324.238 111.324 323.114 111.3C321.967 111.307 320.83 111.069 319.769 110.6Z" fill="#131314"/>
<path d="M1.77734 120.516H11.6559V169.855H1.77734V120.516Z" fill="#131314"/>
<path d="M15.5778 120.516H29.366L31.7858 140.813L32.1132 162.102H33.5366V120.516H41.7782V169.855H28.0185L25.4706 149.487L25.2049 128.27H23.7815V169.855H15.5352L15.5778 120.516Z" fill="#131314"/>
<path d="M50.9805 120.516H75.9092V130.453H50.9805V120.516ZM58.4392 127.421H68.3176V169.845H58.4392V127.421Z" fill="#131314"/>
<path d="M77.5469 120.516H87.4254V169.855H77.5469V120.516ZM85.6129 140.251H96.0798V150.192H85.5939L85.6129 140.251ZM93.9873 120.516H103.804V169.855H93.9873V120.516Z" fill="#131314"/>
<path d="M107.84 120.516H128.318V130.453H117.718V140.251H127.73V150.192H117.718V159.904H128.318V169.84H107.84V120.516Z" fill="#131314"/>
<path d="M142.255 120.516H160.323L165.685 169.855H155.218L151.944 133.054L152.01 126.992H150.506L150.44 133.054L147.299 169.855H136.766L142.255 120.516ZM142.91 147.018H159.597L162.278 157.098H140.163L142.91 147.018Z" fill="#131314"/>
<path d="M173.203 170.244C172.117 169.733 171.146 168.977 170.356 168.026C169.366 166.82 168.581 165.436 168.036 163.937C167.37 161.588 166.975 159.161 166.859 156.709C166.634 153.677 166.525 149.812 166.532 145.117C166.532 142.05 166.574 139.477 166.66 137.399C166.719 135.579 166.893 133.765 167.181 131.971C167.416 130.572 167.744 129.193 168.164 127.846C168.705 126.152 169.549 124.589 170.65 123.246C171.728 121.977 173.076 121.008 174.579 120.424C176.32 119.759 178.159 119.437 180.006 119.473C183.021 119.473 185.442 120.107 187.271 121.375C189.187 122.758 190.634 124.774 191.394 127.12C192.311 129.679 192.77 132.887 192.77 136.745V138.222H182.758V136.106C182.777 134.843 182.679 133.58 182.464 132.339C182.35 131.522 182.033 130.754 181.549 130.115C181.343 129.882 181.093 129.699 180.817 129.578C180.54 129.456 180.243 129.399 179.945 129.41C179.618 129.404 179.293 129.477 178.996 129.624C178.667 129.804 178.385 130.07 178.175 130.396C177.898 130.806 177.677 131.258 177.52 131.736C177.214 132.658 177.017 133.618 176.932 134.593C176.802 135.789 176.726 137.269 176.704 139.034C176.682 140.799 176.671 142.854 176.671 145.199C176.671 148.77 176.726 151.649 176.837 153.837C176.866 155.466 177.074 157.086 177.459 158.662C177.606 159.135 177.827 159.578 178.113 159.97C178.348 160.297 178.651 160.561 178.996 160.742C179.377 160.92 179.791 161.004 180.206 160.987C180.55 160.998 180.891 160.928 181.208 160.783C181.524 160.637 181.807 160.419 182.037 160.144C182.568 159.466 182.929 158.653 183.086 157.783C183.323 156.542 183.433 155.277 183.413 154.01V152.477H179.357V143.456H192.243V169.886H183.674L186.094 162.347H184.671C184.08 164.122 183.312 165.822 182.379 167.417C181.739 168.539 180.851 169.472 179.793 170.131C178.794 170.689 177.682 170.968 176.557 170.944C175.407 170.952 174.267 170.714 173.203 170.244Z" fill="#131314"/>
<path d="M196.109 120.516H216.588V130.453H205.988V140.251H215.999V150.192H205.988V159.904H216.588V169.84H196.109V120.516Z" fill="#131314"/>
<path d="M234.641 169.947C233.168 169.358 231.838 168.418 230.75 167.198C229.633 165.854 228.797 164.268 228.297 162.546C227.603 160.401 227.174 158.167 227.021 155.902C226.78 153.223 226.66 149.645 226.66 145.168C226.66 142.101 226.703 139.517 226.788 137.414C226.851 135.584 227.027 133.76 227.315 131.955C227.545 130.555 227.873 129.177 228.297 127.83C228.797 126.109 229.633 124.523 230.75 123.179C231.838 121.959 233.168 121.019 234.641 120.429C236.421 119.732 238.307 119.398 240.202 119.443C242.118 119.394 244.026 119.728 245.829 120.429C247.315 121.027 248.649 121.994 249.724 123.251C250.802 124.571 251.635 126.101 252.177 127.759C252.858 129.939 253.298 132.199 253.487 134.49C253.784 138.04 253.915 141.604 253.88 145.168C253.88 148.177 253.825 150.732 253.714 152.835C253.631 154.675 253.457 156.509 253.192 158.329C252.978 159.771 252.638 161.188 252.177 162.561C251.635 164.219 250.802 165.75 249.724 167.07C248.649 168.327 247.315 169.294 245.829 169.891C244.025 170.59 242.118 170.924 240.202 170.878C238.311 170.938 236.425 170.623 234.641 169.947ZM241.316 160.747C241.647 160.558 241.937 160.295 242.166 159.975C242.448 159.58 242.67 159.138 242.82 158.667C243.173 157.758 243.394 156.796 243.475 155.815C243.622 154.315 243.698 152.809 243.703 151.301C243.728 149.492 243.739 147.459 243.736 145.204C243.736 141.537 243.682 138.641 243.575 136.514C243.554 134.896 243.299 133.29 242.82 131.756C242.669 131.286 242.448 130.846 242.166 130.452C241.938 130.132 241.648 129.868 241.316 129.681C240.968 129.506 240.586 129.42 240.202 129.43C239.818 129.42 239.438 129.505 239.091 129.681C238.765 129.863 238.485 130.128 238.275 130.452C238.01 130.852 237.8 131.291 237.654 131.756C237.301 132.652 237.09 133.606 237.032 134.577C236.924 135.753 236.858 137.234 236.833 139.019C236.807 140.805 236.796 142.871 236.799 145.219C236.799 148.889 236.856 151.787 236.966 153.908C236.992 155.519 237.224 157.118 237.654 158.662C237.799 159.129 238.009 159.57 238.275 159.97C238.483 160.294 238.76 160.561 239.082 160.747C239.428 160.923 239.809 161.007 240.192 160.992C240.58 161.008 240.965 160.924 241.316 160.747Z" fill="#131314"/>
<path d="M256.695 120.516H277.178V130.453H266.578V140.251H276.57V150.192H266.559V169.855H256.676L256.695 120.516Z" fill="#131314"/>
<path d="M8.57901 229.57C7.13119 228.97 5.83204 228.017 4.78325 226.785C3.6994 225.441 2.87661 223.877 2.36346 222.185C1.66983 220.04 1.24075 217.806 1.08716 215.54C0.846766 212.862 0.726562 209.284 0.726562 204.806C0.726562 201.74 0.77086 199.155 0.859428 197.052C0.917846 195.222 1.09221 193.398 1.38133 191.594C1.61144 190.194 1.93974 188.815 2.36346 187.469C2.86305 185.747 3.69955 184.161 4.81649 182.818C5.92215 181.586 7.27611 180.645 8.77356 180.068C10.5563 179.378 12.4405 179.044 14.3343 179.081C17.3488 179.081 19.7812 179.703 21.6317 180.947C23.4821 182.191 24.8344 184.13 25.6884 186.764C26.5361 189.398 26.9616 192.805 26.9647 196.986V199.383H16.8206V196.286C16.8516 194.843 16.7435 193.401 16.4979 191.982C16.3659 191.174 16.0746 190.405 15.6439 189.728C15.4623 189.492 15.2315 189.304 14.9702 189.182C14.7088 189.059 14.4244 189.005 14.1398 189.023C13.7163 189.004 13.2937 189.077 12.8967 189.238C12.5615 189.405 12.2781 189.673 12.0806 190.009C11.8474 190.368 11.6396 190.746 11.4591 191.139C11.1507 191.982 10.9846 193.454 10.8992 195.545C10.8138 197.635 10.8043 200.722 10.8043 204.811C10.8043 208.901 10.847 212.075 10.9324 214.185C10.9415 215.74 11.1393 217.286 11.5208 218.786C11.6975 219.117 11.8957 219.435 12.1138 219.737C12.2957 220.009 12.5284 220.237 12.7971 220.406C13.093 220.557 13.4186 220.629 13.746 220.616C14.0324 220.622 14.3165 220.559 14.577 220.431C14.8374 220.302 15.0675 220.112 15.2501 219.875C15.7176 219.192 16.012 218.391 16.1042 217.549C16.3014 216.114 16.3887 214.664 16.3651 213.214V210.255H26.5187V212.652C26.5187 216.929 26.0949 220.37 25.2471 222.977C24.3994 225.584 23.0472 227.499 21.1905 228.722C19.3337 229.945 16.9012 230.557 13.8931 230.557C12.0796 230.595 10.276 230.26 8.57901 229.57Z" fill="#131314"/>
<path d="M29.4531 180.17H39.3317V219.568H49.6707V229.509H29.4531V180.17Z" fill="#131314"/>
<path d="M51.5664 180.17H61.4452V229.509H51.5664V180.17Z" fill="#131314"/>
<path d="M65.3767 180.17H80.6121L82.7709 210.761V221.755H84.1421L84.2086 210.761L86.3058 180.17H101.617V229.509H92.9105V187.924H91.5392L91.2782 202.936L88.9059 229.514H78.0451L75.8199 202.936L75.426 187.924H74.0026V229.509H65.3672L65.3767 180.17Z" fill="#131314"/>
<path d="M109.405 180.17H127.468L132.829 229.509H122.362L119.089 192.708L119.155 186.646H117.651L117.584 192.708L114.443 229.509H103.91L109.405 180.17ZM110.059 206.672H126.746L129.427 216.751H107.312L110.059 206.672Z" fill="#131314"/>
<path d="M130.152 180.17H155.105V190.106H130.176L130.152 180.17ZM137.611 187.075H147.513V229.499H137.635L137.611 187.075Z" fill="#131314"/>
<path d="M156.715 180.17H177.193V190.106H166.593V199.905H176.605V209.815H166.593V219.527H177.193V229.468H156.715V180.17Z" fill="#131314"/>
<path d="M195.122 229.571C193.674 228.97 192.375 228.017 191.326 226.785C190.242 225.441 189.42 223.877 188.906 222.185C188.213 220.04 187.784 217.806 187.63 215.54C187.39 212.862 187.27 209.284 187.27 204.807C187.27 201.74 187.312 199.155 187.398 197.053C187.457 195.222 187.633 193.398 187.924 191.594C188.154 190.194 188.483 188.815 188.906 187.469C189.404 185.746 190.241 184.16 191.359 182.818C192.465 181.586 193.819 180.645 195.317 180.068C197.099 179.378 198.984 179.044 200.877 179.081C203.892 179.081 206.324 179.703 208.175 180.947C210.025 182.191 211.377 184.13 212.231 186.764C213.079 189.398 213.505 192.805 213.508 196.986V199.383H203.364V196.286C203.396 194.843 203.286 193.4 203.036 191.982C202.905 191.174 202.616 190.406 202.187 189.728C202.005 189.492 201.775 189.304 201.513 189.182C201.252 189.059 200.967 189.005 200.683 189.023C200.259 189.004 199.836 189.077 199.44 189.238C199.103 189.405 198.818 189.672 198.619 190.009C198.389 190.371 198.181 190.748 197.997 191.139C197.694 191.982 197.523 193.454 197.442 195.545C197.362 197.635 197.343 200.722 197.343 204.812C197.343 208.901 197.385 212.075 197.475 214.186C197.482 215.74 197.68 217.287 198.064 218.786C198.24 219.116 198.437 219.434 198.652 219.737C198.836 220.009 199.07 220.237 199.34 220.406C199.636 220.558 199.962 220.63 200.289 220.616C200.575 220.622 200.859 220.559 201.12 220.431C201.38 220.303 201.61 220.112 201.793 219.875C202.261 219.193 202.555 218.391 202.647 217.549C202.844 216.114 202.932 214.665 202.908 213.214V210.255H213.047V212.652C213.047 216.929 212.622 220.37 211.771 222.977C210.92 225.584 209.568 227.499 207.714 228.722C205.861 229.946 203.43 230.557 200.422 230.557C198.613 230.594 196.814 230.259 195.122 229.571Z" fill="#131314"/>
<path d="M215.996 180.17H225.875V229.509H215.996V180.17ZM224.062 199.905H234.529V209.815H224.043L224.062 199.905ZM232.441 180.17H242.253V229.509H232.441V180.17Z" fill="#131314"/>
<path d="M249.998 180.17H268.062L273.423 229.509H262.956L259.687 192.708L259.749 186.646H258.245L258.178 192.708L255.037 229.509H244.504L249.998 180.17ZM250.653 206.672H267.341L270.021 216.751H247.906L250.653 206.672Z" fill="#131314"/>
<path d="M275.664 180.17H289.471L291.891 200.467L292.218 221.755H293.642V180.17H301.883V229.509H288.124L285.571 209.136L285.31 187.924H283.887V229.509H275.664V180.17Z" fill="#131314"/>
<path d="M311.586 229.888C310.499 229.377 309.527 228.619 308.739 227.664C307.745 226.461 306.958 225.076 306.414 223.575C305.753 221.228 305.358 218.803 305.238 216.353C305.019 213.32 304.91 209.454 304.91 204.755C304.91 201.689 304.954 199.116 305.043 197.037C305.102 195.219 305.277 193.407 305.565 191.614C305.795 190.215 306.123 188.836 306.547 187.489C307.086 185.794 307.931 184.231 309.033 182.889C310.111 181.619 311.459 180.651 312.962 180.068C314.704 179.402 316.542 179.08 318.39 179.117C321.398 179.117 323.819 179.751 325.654 181.019C327.57 182.401 329.017 184.418 329.777 186.764C330.691 189.326 331.148 192.533 331.148 196.383V197.865H321.137V195.749C321.158 194.484 321.06 193.221 320.843 191.977C320.73 191.162 320.413 190.395 319.927 189.759C319.721 189.526 319.472 189.342 319.196 189.221C318.919 189.099 318.622 189.042 318.323 189.053C317.996 189.049 317.672 189.122 317.375 189.268C317.047 189.448 316.767 189.713 316.558 190.04C316.281 190.45 316.061 190.901 315.904 191.379C315.597 192.301 315.399 193.261 315.315 194.236C315.168 195.712 315.091 197.194 315.088 198.678C315.064 200.436 315.054 202.496 315.054 204.842C315.054 208.413 315.108 211.293 315.216 213.48C315.249 215.109 315.458 216.728 315.837 218.305C315.989 218.775 316.21 219.215 316.492 219.609C316.726 219.939 317.028 220.205 317.375 220.386C317.756 220.562 318.169 220.645 318.584 220.631C318.929 220.643 319.272 220.573 319.589 220.427C319.906 220.282 320.19 220.063 320.421 219.788C320.95 219.11 321.31 218.297 321.464 217.426C321.704 216.186 321.813 214.921 321.792 213.654V212.121H317.735V203.094H330.626V229.53H322.053L324.477 221.986H323.054C322.468 223.763 321.701 225.465 320.767 227.061C320.125 228.181 319.237 229.112 318.181 229.775C317.181 230.333 316.067 230.612 314.94 230.588C313.79 230.596 312.65 230.358 311.586 229.888Z" fill="#131314"/>
<path d="M334.488 180.17H354.971V190.106H344.371V199.905H354.383V209.815H344.371V219.527H354.971V229.468H334.488V180.17Z" fill="#131314"/>
</svg>
