<svg width="430" height="66" viewBox="0 0 430 66" fill="none" xmlns="http://www.w3.org/2000/svg">
<path d="M4.68854 0.650173H14.0656L18.129 28H12.6591L9.88501 6.74528L9.80687 3.85401H8.98637L8.86916 6.74528L6.0951 28H0.625139L4.68854 0.650173ZM4.41504 15.4191H14.3782L15.7848 20.2639H2.96941L4.41504 15.4191ZM25.8032 0.650173H32.3671C34.0081 0.650173 35.4407 0.975767 36.6649 1.62695C37.9152 2.25209 38.892 3.15073 39.5953 4.32287C39.9599 4.948 40.2334 5.65128 40.4158 6.43271C40.5981 7.21413 40.6893 8.0737 40.6893 9.01141C40.6893 9.97516 40.5981 10.8478 40.4158 11.6292C40.2334 12.3846 39.9599 13.0878 39.5953 13.739C38.892 14.9112 37.9152 15.8228 36.6649 16.474C35.4407 17.1252 34.0081 17.4508 32.3671 17.4508H29.3586V12.645H32.289C32.9141 12.645 33.4611 12.5148 33.93 12.2543C34.3988 11.9938 34.7635 11.6292 35.024 11.1603C35.2063 10.8738 35.3365 10.5612 35.4147 10.2226C35.4928 9.85795 35.5319 9.45421 35.5319 9.01141C35.5319 8.59465 35.4928 8.21696 35.4147 7.87834C35.3365 7.51368 35.2063 7.18808 35.024 6.90156C34.7895 6.43271 34.4379 6.08107 33.969 5.84664C33.5002 5.58617 32.9402 5.45593 32.289 5.45593H30.9215V28H25.8032V0.650173ZM42.4588 0.650173H47.5771V23.1942H54.4146V28H42.4588V0.650173ZM59.4447 0.650173H68.8217L72.8851 28H67.4152L64.6411 6.74528L64.563 3.85401H63.7425L63.6253 6.74528L60.8512 28H55.3813L59.4447 0.650173ZM59.1712 15.4191H69.1343L70.5409 20.2639H57.7255L59.1712 15.4191ZM71.7988 0.650173H77.3469L80.2382 10.3398V13.153H81.0587V10.3398L83.9499 0.650173H89.498L82.8169 20.1858H78.48L71.7988 0.650173ZM78.0892 18.0759H83.2076V28H78.0892V18.0759ZM90.9757 0.650173H98.5164C100.131 0.650173 101.499 0.910648 102.619 1.4316C103.739 1.9265 104.572 2.65583 105.119 3.61958C105.432 4.19263 105.653 4.81777 105.784 5.495C105.94 6.14619 106.018 6.91459 106.018 7.8002C106.018 8.52953 105.94 9.19374 105.784 9.79283C105.653 10.3659 105.445 10.8998 105.159 11.3947C104.742 12.1501 104.156 12.7492 103.4 13.192C102.645 13.6088 101.681 13.8302 100.509 13.8562V14.6767C101.707 14.7028 102.671 14.9372 103.4 15.38C104.13 15.7968 104.716 16.3828 105.159 17.1382C105.445 17.6331 105.653 18.1931 105.784 18.8183C105.94 19.4434 106.018 20.1206 106.018 20.85C106.018 21.7095 105.94 22.4779 105.784 23.1552C105.653 23.8324 105.432 24.4575 105.119 25.0306C104.572 25.9943 103.739 26.7367 102.619 27.2576C101.499 27.7525 100.131 28 98.5164 28H90.9757V0.650173ZM97.8522 23.1942C98.4513 23.1942 98.9462 23.1031 99.3369 22.9207C99.7277 22.7124 100.04 22.4128 100.275 22.0221C100.431 21.7356 100.548 21.423 100.626 21.0844C100.704 20.7458 100.744 20.329 100.744 19.8341C100.744 19.4174 100.704 19.0527 100.626 18.7401C100.548 18.4015 100.444 18.102 100.314 17.8415C100.079 17.4247 99.7407 17.1122 99.2979 16.9038C98.8811 16.6694 98.3992 16.5521 97.8522 16.5521H94.1014V12.059H97.8522C98.3992 12.059 98.8811 11.9548 99.2979 11.7464C99.7407 11.538 100.079 11.2254 100.314 10.8087C100.444 10.5482 100.548 10.2617 100.626 9.94912C100.704 9.6105 100.744 9.23281 100.744 8.81605C100.744 8.32115 100.704 7.90439 100.626 7.56577C100.548 7.22716 100.431 6.91459 100.275 6.62806C100.04 6.23735 99.7277 5.95083 99.3369 5.7685C98.9462 5.56012 98.4513 5.45593 97.8522 5.45593H96.094V23.1942H97.8522ZM115.743 28.6251C114.466 28.6251 113.372 28.4428 112.461 28.0781C111.549 27.7135 110.781 27.1795 110.155 26.4762C109.53 25.7729 109.022 24.8873 108.632 23.8194C108.215 22.6993 107.915 21.3709 107.733 19.8341C107.577 18.2713 107.499 16.4349 107.499 14.3251C107.499 12.9185 107.538 11.6422 107.616 10.4961C107.694 9.35002 107.811 8.30813 107.967 7.37042C108.15 6.43271 108.371 5.58617 108.632 4.83079C109.022 3.76284 109.53 2.87723 110.155 2.17395C110.781 1.47067 111.549 0.936696 112.461 0.572032C113.372 0.207368 114.466 0.0250354 115.743 0.0250354C116.993 0.0250354 118.074 0.207368 118.985 0.572032C119.923 0.936696 120.705 1.47067 121.33 2.17395C121.955 2.87723 122.45 3.76284 122.814 4.83079C123.231 5.92478 123.518 7.2532 123.674 8.81605C123.856 10.3529 123.948 12.1892 123.948 14.3251C123.948 15.7316 123.908 17.008 123.83 18.1541C123.778 19.3002 123.661 20.342 123.479 21.2798C123.322 22.2175 123.101 23.064 122.814 23.8194C122.45 24.8873 121.955 25.7729 121.33 26.4762C120.705 27.1795 119.923 27.7135 118.985 28.0781C118.074 28.4428 116.993 28.6251 115.743 28.6251ZM115.743 23.8194C116.081 23.8194 116.394 23.7543 116.68 23.624C116.967 23.4938 117.214 23.2854 117.423 22.9989C117.631 22.7124 117.813 22.3607 117.97 21.944C118.178 21.423 118.334 20.7849 118.438 20.0295C118.543 19.2481 118.608 18.3755 118.634 17.4117C118.66 16.448 118.673 15.4191 118.673 14.3251C118.673 12.5018 118.621 10.965 118.517 9.71469C118.438 8.46441 118.256 7.46158 117.97 6.70621C117.813 6.28945 117.631 5.93781 117.423 5.65128C117.214 5.36476 116.967 5.15638 116.68 5.02615C116.394 4.89591 116.081 4.83079 115.743 4.83079C115.378 4.83079 115.052 4.89591 114.766 5.02615C114.479 5.15638 114.232 5.36476 114.023 5.65128C113.815 5.93781 113.633 6.28945 113.476 6.70621C113.294 7.22716 113.151 7.87834 113.047 8.65977C112.942 9.41514 112.877 10.2877 112.851 11.2775C112.825 12.2413 112.812 13.2571 112.812 14.3251C112.812 16.1224 112.851 17.6592 112.929 18.9355C113.034 20.1858 113.216 21.1886 113.476 21.944C113.633 22.3607 113.815 22.7124 114.023 22.9989C114.232 23.2854 114.479 23.4938 114.766 23.624C115.052 23.7543 115.378 23.8194 115.743 23.8194ZM133.848 28.6251C132.572 28.6251 131.478 28.4428 130.566 28.0781C129.654 27.7135 128.886 27.1795 128.261 26.4762C127.636 25.7729 127.128 24.8873 126.737 23.8194C126.32 22.6993 126.021 21.3709 125.838 19.8341C125.682 18.2713 125.604 16.4349 125.604 14.3251C125.604 12.9185 125.643 11.6422 125.721 10.4961C125.799 9.35002 125.917 8.30813 126.073 7.37042C126.255 6.43271 126.477 5.58617 126.737 4.83079C127.128 3.76284 127.636 2.87723 128.261 2.17395C128.886 1.47067 129.654 0.936696 130.566 0.572032C131.478 0.207368 132.572 0.0250354 133.848 0.0250354C135.098 0.0250354 136.179 0.207368 137.091 0.572032C138.029 0.936696 138.81 1.47067 139.435 2.17395C140.06 2.87723 140.555 3.76284 140.92 4.83079C141.337 5.92478 141.623 7.2532 141.78 8.81605C141.962 10.3529 142.053 12.1892 142.053 14.3251C142.053 15.7316 142.014 17.008 141.936 18.1541C141.884 19.3002 141.767 20.342 141.584 21.2798C141.428 22.2175 141.206 23.064 140.92 23.8194C140.555 24.8873 140.06 25.7729 139.435 26.4762C138.81 27.1795 138.029 27.7135 137.091 28.0781C136.179 28.4428 135.098 28.6251 133.848 28.6251ZM133.848 23.8194C134.187 23.8194 134.499 23.7543 134.786 23.624C135.072 23.4938 135.32 23.2854 135.528 22.9989C135.737 22.7124 135.919 22.3607 136.075 21.944C136.284 21.423 136.44 20.7849 136.544 20.0295C136.648 19.2481 136.713 18.3755 136.739 17.4117C136.765 16.448 136.778 15.4191 136.778 14.3251C136.778 12.5018 136.726 10.965 136.622 9.71469C136.544 8.46441 136.362 7.46158 136.075 6.70621C135.919 6.28945 135.737 5.93781 135.528 5.65128C135.32 5.36476 135.072 5.15638 134.786 5.02615C134.499 4.89591 134.187 4.83079 133.848 4.83079C133.483 4.83079 133.158 4.89591 132.871 5.02615C132.585 5.15638 132.337 5.36476 132.129 5.65128C131.921 5.93781 131.738 6.28945 131.582 6.70621C131.4 7.22716 131.256 7.87834 131.152 8.65977C131.048 9.41514 130.983 10.2877 130.957 11.2775C130.931 12.2413 130.918 13.2571 130.918 14.3251C130.918 16.1224 130.957 17.6592 131.035 18.9355C131.139 20.1858 131.321 21.1886 131.582 21.944C131.738 22.3607 131.921 22.7124 132.129 22.9989C132.337 23.2854 132.585 23.4938 132.871 23.624C133.158 23.7543 133.483 23.8194 133.848 23.8194ZM147.187 13.8562H148.867L155.157 0.650173H160.706L153.282 15.927L152.422 14.286L149.336 21.1235L147.187 13.8562ZM144.491 0.650173H149.609V9.16769L148.046 13.8562L149.609 15.6926V28H144.491V0.650173ZM149.492 13.9344L153.751 11.1603L160.51 28H155.04L149.492 13.9344ZM168.034 0.650173H180.225V5.45593H173.153V11.9027H179.834V16.7084H173.153V28H168.034V0.650173ZM189.673 28.6251C188.396 28.6251 187.302 28.4428 186.391 28.0781C185.479 27.7135 184.711 27.1795 184.085 26.4762C183.46 25.7729 182.952 24.8873 182.562 23.8194C182.145 22.6993 181.845 21.3709 181.663 19.8341C181.507 18.2713 181.429 16.4349 181.429 14.3251C181.429 12.9185 181.468 11.6422 181.546 10.4961C181.624 9.35002 181.741 8.30813 181.897 7.37042C182.08 6.43271 182.301 5.58617 182.562 4.83079C182.952 3.76284 183.46 2.87723 184.085 2.17395C184.711 1.47067 185.479 0.936696 186.391 0.572032C187.302 0.207368 188.396 0.0250354 189.673 0.0250354C190.923 0.0250354 192.004 0.207368 192.915 0.572032C193.853 0.936696 194.635 1.47067 195.26 2.17395C195.885 2.87723 196.38 3.76284 196.744 4.83079C197.161 5.92478 197.448 7.2532 197.604 8.81605C197.786 10.3529 197.878 12.1892 197.878 14.3251C197.878 15.7316 197.838 17.008 197.76 18.1541C197.708 19.3002 197.591 20.342 197.409 21.2798C197.252 22.2175 197.031 23.064 196.744 23.8194C196.38 24.8873 195.885 25.7729 195.26 26.4762C194.635 27.1795 193.853 27.7135 192.915 28.0781C192.004 28.4428 190.923 28.6251 189.673 28.6251ZM189.673 23.8194C190.011 23.8194 190.324 23.7543 190.61 23.624C190.897 23.4938 191.144 23.2854 191.353 22.9989C191.561 22.7124 191.743 22.3607 191.9 21.944C192.108 21.423 192.264 20.7849 192.368 20.0295C192.473 19.2481 192.538 18.3755 192.564 17.4117C192.59 16.448 192.603 15.4191 192.603 14.3251C192.603 12.5018 192.551 10.965 192.447 9.71469C192.368 8.46441 192.186 7.46158 191.9 6.70621C191.743 6.28945 191.561 5.93781 191.353 5.65128C191.144 5.36476 190.897 5.15638 190.61 5.02615C190.324 4.89591 190.011 4.83079 189.673 4.83079C189.308 4.83079 188.982 4.89591 188.696 5.02615C188.409 5.15638 188.162 5.36476 187.953 5.65128C187.745 5.93781 187.563 6.28945 187.406 6.70621C187.224 7.22716 187.081 7.87834 186.977 8.65977C186.872 9.41514 186.807 10.2877 186.781 11.2775C186.755 12.2413 186.742 13.2571 186.742 14.3251C186.742 16.1224 186.781 17.6592 186.859 18.9355C186.964 20.1858 187.146 21.1886 187.406 21.944C187.563 22.3607 187.745 22.7124 187.953 22.9989C188.162 23.2854 188.409 23.4938 188.696 23.624C188.982 23.7543 189.308 23.8194 189.673 23.8194ZM200.315 0.650173H207.348C208.963 0.650173 210.344 0.936695 211.49 1.50974C212.636 2.05674 213.535 2.87723 214.186 3.97122C214.524 4.57032 214.772 5.23453 214.928 5.96385C215.11 6.69318 215.202 7.50065 215.202 8.38627C215.202 9.14164 215.123 9.84493 214.967 10.4961C214.811 11.1473 214.576 11.7464 214.264 12.2934C213.691 13.2311 212.857 13.9604 211.763 14.4814C210.695 15.0023 209.471 15.2628 208.091 15.2628L206.801 15.4191L206.684 16.2786H203.91V12.1762H206.919C207.518 12.1762 208.039 12.059 208.481 11.8245C208.95 11.5641 209.315 11.2124 209.575 10.7696C209.732 10.5091 209.849 10.2226 209.927 9.91004C210.005 9.57143 210.044 9.20676 210.044 8.81605C210.044 8.42534 210.005 8.0737 209.927 7.76113C209.875 7.44856 209.771 7.16204 209.614 6.90156C209.354 6.45876 208.989 6.10711 208.52 5.84664C208.052 5.58617 207.518 5.45593 206.919 5.45593H205.434V28H200.315V0.650173ZM205.59 14.0516H210.044V15.7707L211.841 16.1614L215.749 28H210.044L205.59 14.0516ZM229.538 28.6251C227.923 28.6251 226.569 28.3386 225.475 27.7656C224.381 27.1925 223.56 26.333 223.013 25.1869C222.466 24.0147 222.193 22.5691 222.193 20.85C222.193 20.5635 222.193 20.2769 222.193 19.9904C222.193 19.6778 222.193 19.3653 222.193 19.0527H227.311C227.311 19.209 227.311 19.3522 227.311 19.4825C227.311 19.6127 227.311 19.756 227.311 19.9123C227.311 20.0686 227.311 20.2379 227.311 20.4202C227.311 20.5765 227.311 20.7328 227.311 20.889C227.311 21.5402 227.389 22.0872 227.545 22.53C227.702 22.9468 227.949 23.2724 228.288 23.5068C228.626 23.7152 229.043 23.8194 229.538 23.8194C229.981 23.8194 230.345 23.7412 230.632 23.585C230.945 23.4287 231.192 23.1812 231.374 22.8426C231.505 22.6082 231.609 22.3347 231.687 22.0221C231.765 21.6835 231.804 21.3058 231.804 20.889C231.804 20.3941 231.778 19.9904 231.726 19.6778C231.674 19.3653 231.583 19.0787 231.452 18.8183C231.426 18.7922 231.413 18.7662 231.413 18.7401C231.413 18.7141 231.4 18.688 231.374 18.662C231.192 18.3494 230.945 18.0759 230.632 17.8415C230.345 17.6071 229.955 17.3726 229.46 17.1382L226.608 15.7707C225.93 15.4582 225.344 15.0805 224.849 14.6377C224.355 14.1948 223.938 13.6869 223.599 13.1139C223.234 12.4627 222.961 11.7464 222.779 10.965C222.622 10.1835 222.544 9.25886 222.544 8.19091C222.544 7.14901 222.635 6.22433 222.818 5.41686C223 4.60939 223.274 3.86703 223.638 3.1898C224.237 2.17395 225.071 1.39253 226.139 0.845529C227.207 0.298533 228.496 0.0250354 230.007 0.0250354C231.596 0.0250354 232.924 0.324581 233.992 0.923673C235.086 1.49672 235.907 2.35628 236.454 3.50237C237.001 4.64846 237.274 6.05502 237.274 7.72206C237.274 7.87834 237.274 8.03463 237.274 8.19091C237.274 8.3472 237.274 8.49046 237.274 8.62069C237.274 8.77698 237.274 8.93326 237.274 9.08955C237.274 9.21979 237.274 9.36305 237.274 9.51933H232.156C232.156 9.38909 232.156 9.25886 232.156 9.12862C232.156 8.99838 232.156 8.86814 232.156 8.73791C232.156 8.55558 232.156 8.38627 232.156 8.22998C232.156 8.04765 232.156 7.87834 232.156 7.72206C232.156 6.73225 231.973 6.00292 231.609 5.53407C231.27 5.06522 230.736 4.83079 230.007 4.83079C229.616 4.83079 229.264 4.90893 228.952 5.06522C228.665 5.2215 228.431 5.46895 228.249 5.80757C228.118 6.042 228.014 6.32852 227.936 6.66714C227.858 6.9797 227.819 7.34437 227.819 7.76113C227.819 8.25603 227.845 8.67279 227.897 9.01141C227.975 9.35002 228.092 9.66259 228.249 9.94912C228.431 10.2356 228.665 10.5091 228.952 10.7696C229.264 11.004 229.668 11.2385 230.163 11.4729L233.015 12.8404C233.693 13.153 234.279 13.5437 234.774 14.0125C235.268 14.4553 235.685 14.9763 236.024 15.5754C236.388 16.2005 236.662 16.9168 236.844 17.7243C237.027 18.5057 237.118 19.4174 237.118 20.4593C237.118 21.4751 237.014 22.3998 236.805 23.2333C236.623 24.0408 236.349 24.7831 235.985 25.4604C235.386 26.5023 234.539 27.2967 233.445 27.8437C232.377 28.3647 231.075 28.6251 229.538 28.6251ZM246.597 28.6251C245.425 28.6251 244.396 28.4428 243.511 28.0781C242.625 27.7135 241.87 27.1795 241.244 26.4762C240.645 25.7729 240.15 24.8873 239.76 23.8194C239.343 22.6993 239.043 21.3709 238.861 19.8341C238.705 18.2713 238.627 16.4349 238.627 14.3251C238.627 12.9185 238.666 11.6422 238.744 10.4961C238.822 9.35002 238.939 8.30813 239.095 7.37042C239.278 6.43271 239.499 5.58617 239.76 4.83079C240.15 3.76284 240.658 2.87723 241.283 2.17395C241.909 1.47067 242.677 0.936696 243.589 0.572032C244.526 0.207368 245.633 0.0250354 246.91 0.0250354C248.707 0.0250354 250.153 0.402723 251.247 1.1581C252.341 1.88743 253.148 3.02049 253.669 4.55729C254.19 6.06804 254.45 8.03463 254.45 10.457C254.45 10.5352 254.45 10.6003 254.45 10.6524C254.45 10.7045 254.45 10.7696 254.45 10.8478H249.176C249.176 10.7696 249.176 10.6915 249.176 10.6133C249.176 10.5352 249.176 10.457 249.176 10.3789C249.176 9.02443 249.098 7.94346 248.941 7.13599C248.785 6.32852 248.525 5.74245 248.16 5.37779C247.821 5.01312 247.366 4.83079 246.792 4.83079C246.402 4.83079 246.063 4.89591 245.777 5.02615C245.49 5.15638 245.243 5.35174 245.034 5.61221C244.852 5.87269 244.67 6.2113 244.487 6.62806C244.253 7.2532 244.097 8.17789 244.018 9.40212C243.94 10.6263 243.901 12.2673 243.901 14.3251C243.901 16.4089 243.953 18.0759 244.058 19.3262C244.162 20.5765 244.318 21.5402 244.526 22.2175C244.683 22.5821 244.839 22.8817 244.995 23.1161C245.178 23.3505 245.386 23.5329 245.62 23.6631C245.881 23.7673 246.167 23.8194 246.48 23.8194C247.053 23.8194 247.509 23.6371 247.847 23.2724C248.186 22.8817 248.433 22.2826 248.59 21.4751C248.746 20.6676 248.824 19.5867 248.824 18.2322V17.8024H254.099V18.1541C254.099 20.6546 253.838 22.6733 253.317 24.2101C252.796 25.7208 251.989 26.8409 250.895 27.5702C249.801 28.2735 248.368 28.6251 246.597 28.6251ZM256.56 0.650173H263.592C265.207 0.650173 266.588 0.936695 267.734 1.50974C268.88 2.05674 269.779 2.87723 270.43 3.97122C270.769 4.57032 271.016 5.23453 271.172 5.96385C271.355 6.69318 271.446 7.50065 271.446 8.38627C271.446 9.14164 271.368 9.84493 271.211 10.4961C271.055 11.1473 270.821 11.7464 270.508 12.2934C269.935 13.2311 269.102 13.9604 268.008 14.4814C266.94 15.0023 265.715 15.2628 264.335 15.2628L263.045 15.4191L262.928 16.2786H260.154V12.1762H263.163C263.762 12.1762 264.283 12.059 264.726 11.8245C265.194 11.5641 265.559 11.2124 265.82 10.7696C265.976 10.5091 266.093 10.2226 266.171 9.91004C266.249 9.57143 266.288 9.20676 266.288 8.81605C266.288 8.42534 266.249 8.0737 266.171 7.76113C266.119 7.44856 266.015 7.16204 265.859 6.90156C265.598 6.45876 265.233 6.10711 264.765 5.84664C264.296 5.58617 263.762 5.45593 263.163 5.45593H261.678V28H256.56V0.650173ZM261.834 14.0516H266.288V15.7707L268.086 16.1614L271.993 28H266.288L261.834 14.0516ZM273.711 0.650173H285.901V5.45593H278.83V11.9027H285.511V16.7084H278.83V23.1942H285.901V28H273.711V0.650173ZM288.116 0.650173H300.306V5.45593H293.234V11.9027H299.915V16.7084H293.234V23.1942H300.306V28H288.116V0.650173ZM302.52 0.650173H310.022L312.64 14.833L312.835 24.2101H313.655V0.650173H318.11V28H310.608L307.951 13.7781L307.795 4.44008H306.974V28H302.52V0.650173ZM320.336 0.650173H325.376L326.626 18.3494L326.782 24.2101H327.642V18.3494L329.049 0.650173H335.769L337.175 18.3494L337.214 24.2101H338.074L338.23 18.3494L339.481 0.650173H344.521L342.411 28H334.128L332.839 10.3398V4.44008H331.979V10.3398L330.69 28H322.446L320.336 0.650173ZM346.744 0.650173H353.777C355.392 0.650173 356.772 0.936695 357.918 1.50974C359.064 2.05674 359.963 2.87723 360.614 3.97122C360.953 4.57032 361.2 5.23453 361.357 5.96385C361.539 6.69318 361.63 7.50065 361.63 8.38627C361.63 9.14164 361.552 9.84493 361.396 10.4961C361.239 11.1473 361.005 11.7464 360.692 12.2934C360.119 13.2311 359.286 13.9604 358.192 14.4814C357.124 15.0023 355.9 15.2628 354.519 15.2628L353.23 15.4191L353.112 16.2786H350.338V12.1762H353.347C353.946 12.1762 354.467 12.059 354.91 11.8245C355.379 11.5641 355.743 11.2124 356.004 10.7696C356.16 10.5091 356.277 10.2226 356.355 9.91004C356.434 9.57143 356.473 9.20676 356.473 8.81605C356.473 8.42534 356.434 8.0737 356.355 7.76113C356.303 7.44856 356.199 7.16204 356.043 6.90156C355.782 6.45876 355.418 6.10711 354.949 5.84664C354.48 5.58617 353.946 5.45593 353.347 5.45593H351.862V28H346.744V0.650173ZM352.018 14.0516H356.473V15.7707L358.27 16.1614L362.177 28H356.473L352.018 14.0516ZM363.896 0.650173H369.014V28H363.896V0.650173ZM375.632 4.04937H380.712V28H375.632V4.04937ZM370.514 0.650173H385.83V5.45593H370.514V0.650173ZM387.324 0.650173H392.443V28H387.324V0.650173ZM395.662 0.650173H403.164L405.782 14.833L405.977 24.2101H406.798V0.650173H411.252V28H403.75L401.093 13.7781L400.937 4.44008H400.116V28H395.662V0.650173ZM420.042 28.6251C419.312 28.6251 418.622 28.4819 417.971 28.1954C417.32 27.9349 416.721 27.5051 416.174 26.906C415.627 26.2809 415.171 25.4734 414.806 24.4836C414.415 23.3896 414.129 21.97 413.947 20.2248C413.764 18.4536 413.673 16.474 413.673 14.286C413.673 12.8795 413.712 11.6162 413.79 10.4961C413.868 9.35002 413.986 8.30813 414.142 7.37042C414.324 6.43271 414.546 5.58617 414.806 4.83079C415.197 3.76284 415.705 2.87723 416.33 2.17395C416.981 1.44462 417.763 0.910649 418.674 0.572032C419.586 0.207368 420.654 0.0250354 421.878 0.0250354C423.597 0.0250354 425.017 0.3897 426.137 1.11903C427.257 1.84836 428.09 2.95537 428.637 4.44008C429.184 5.89873 429.458 7.77415 429.458 10.0663C429.458 10.0924 429.458 10.1314 429.458 10.1835C429.458 10.2096 429.458 10.2487 429.458 10.3008H424.34C424.34 10.2487 424.34 10.1966 424.34 10.1445C424.34 10.0924 424.34 10.0403 424.34 9.98819C424.34 8.8421 424.248 7.89137 424.066 7.13599C423.884 6.35457 423.61 5.78152 423.246 5.41686C422.881 5.02615 422.425 4.83079 421.878 4.83079C421.539 4.83079 421.227 4.89591 420.94 5.02615C420.654 5.15638 420.406 5.36476 420.198 5.65128C419.99 5.91176 419.807 6.2634 419.651 6.70621C419.469 7.22716 419.325 7.86532 419.221 8.62069C419.117 9.37607 419.052 10.2487 419.026 11.2385C419 12.2022 418.987 13.2311 418.987 14.3251C418.987 16.1484 419.026 17.6982 419.104 18.9746C419.208 20.2248 419.391 21.2277 419.651 21.983C419.807 22.3998 419.99 22.7514 420.198 23.038C420.406 23.2984 420.641 23.4938 420.901 23.624C421.188 23.7543 421.487 23.8194 421.8 23.8194C422.399 23.8194 422.894 23.598 423.285 23.1552C423.701 22.7124 424.014 22.0742 424.222 21.2407C424.457 20.4072 424.574 19.3783 424.574 18.1541V17.9196H421.175V13.5437H429.067V28H424.574L425.902 23.3505H425.082C424.665 24.6269 424.222 25.6427 423.753 26.3981C423.311 27.1535 422.777 27.7135 422.152 28.0781C421.552 28.4428 420.849 28.6251 420.042 28.6251ZM1.99263 37.6502H7.11095V65H1.99263V37.6502ZM10.3304 37.6502H17.832L20.4498 51.833L20.6452 61.2101H21.4656V37.6502H25.9198V65H18.4181L15.7613 50.7781L15.605 41.4401H14.7845V65H10.3304V37.6502ZM37.6164 41.0494H42.6956V65H37.6164V41.0494ZM32.4981 37.6502H47.814V42.4559H32.4981V37.6502ZM59.7795 37.6502H64.8978V65H59.7795V37.6502ZM49.3084 37.6502H54.4268V65H49.3084V37.6502ZM53.45 48.9027H60.9907V53.7084H53.45V48.9027ZM68.1008 37.6502H80.291V42.4559H73.2191V48.9027H79.9003V53.7084H73.2191V60.1942H80.291V65H68.1008V37.6502ZM90.2956 37.6502H99.6727L103.736 65H98.2661L95.4921 43.7453L95.414 40.854H94.5935L94.4762 43.7453L91.7022 65H86.2322L90.2956 37.6502ZM90.0221 52.4191H99.9853L101.392 57.2639H88.5765L90.0221 52.4191ZM110.987 65.6251C110.258 65.6251 109.568 65.4819 108.916 65.1954C108.265 64.9349 107.666 64.5051 107.119 63.906C106.572 63.2809 106.116 62.4734 105.752 61.4836C105.361 60.3896 105.074 58.97 104.892 57.2248C104.71 55.4536 104.619 53.474 104.619 51.286C104.619 49.8795 104.658 48.6162 104.736 47.4961C104.814 46.35 104.931 45.3081 105.087 44.3704C105.27 43.4327 105.491 42.5862 105.752 41.8308C106.142 40.7628 106.65 39.8772 107.275 39.174C107.927 38.4446 108.708 37.9106 109.62 37.572C110.531 37.2074 111.599 37.025 112.824 37.025C114.543 37.025 115.962 37.3897 117.082 38.119C118.202 38.8484 119.036 39.9554 119.583 41.4401C120.13 42.8987 120.403 44.7742 120.403 47.0663C120.403 47.0924 120.403 47.1314 120.403 47.1835C120.403 47.2096 120.403 47.2487 120.403 47.3008H115.285C115.285 47.2487 115.285 47.1966 115.285 47.1445C115.285 47.0924 115.285 47.0403 115.285 46.9882C115.285 45.8421 115.194 44.8914 115.012 44.136C114.829 43.3546 114.556 42.7815 114.191 42.4169C113.826 42.0261 113.371 41.8308 112.824 41.8308C112.485 41.8308 112.172 41.8959 111.886 42.0261C111.599 42.1564 111.352 42.3648 111.143 42.6513C110.935 42.9118 110.753 43.2634 110.596 43.7062C110.414 44.2272 110.271 44.8653 110.167 45.6207C110.062 46.3761 109.997 47.2487 109.971 48.2385C109.945 49.2022 109.932 50.2311 109.932 51.3251C109.932 53.1484 109.971 54.6982 110.049 55.9746C110.154 57.2248 110.336 58.2277 110.596 58.983C110.753 59.3998 110.935 59.7514 111.143 60.038C111.352 60.2984 111.586 60.4938 111.847 60.624C112.133 60.7543 112.433 60.8194 112.745 60.8194C113.344 60.8194 113.839 60.598 114.23 60.1552C114.647 59.7124 114.959 59.0742 115.168 58.2407C115.402 57.4072 115.519 56.3783 115.519 55.1541V54.9196H112.12V50.5437H120.013V65H115.519L116.848 60.3505H116.027C115.611 61.6269 115.168 62.6427 114.699 63.3981C114.256 64.1535 113.722 64.7135 113.097 65.0781C112.498 65.4428 111.795 65.6251 110.987 65.6251ZM123.162 37.6502H135.352V42.4559H128.28V48.9027H134.962V53.7084H128.28V60.1942H135.352V65H123.162V37.6502ZM150.849 65.6251C149.572 65.6251 148.478 65.4428 147.567 65.0781C146.655 64.7135 145.887 64.1795 145.261 63.4762C144.636 62.7729 144.128 61.8873 143.738 60.8194C143.321 59.6993 143.021 58.3709 142.839 56.8341C142.683 55.2713 142.605 53.4349 142.605 51.3251C142.605 49.9185 142.644 48.6422 142.722 47.4961C142.8 46.35 142.917 45.3081 143.073 44.3704C143.256 43.4327 143.477 42.5862 143.738 41.8308C144.128 40.7628 144.636 39.8772 145.261 39.174C145.887 38.4707 146.655 37.9367 147.567 37.572C148.478 37.2074 149.572 37.025 150.849 37.025C152.099 37.025 153.18 37.2074 154.092 37.572C155.029 37.9367 155.811 38.4707 156.436 39.174C157.061 39.8772 157.556 40.7628 157.921 41.8308C158.337 42.9248 158.624 44.2532 158.78 45.8161C158.962 47.3529 159.054 49.1892 159.054 51.3251C159.054 52.7316 159.015 54.008 158.936 55.1541C158.884 56.3002 158.767 57.342 158.585 58.2798C158.428 59.2175 158.207 60.064 157.921 60.8194C157.556 61.8873 157.061 62.7729 156.436 63.4762C155.811 64.1795 155.029 64.7135 154.092 65.0781C153.18 65.4428 152.099 65.6251 150.849 65.6251ZM150.849 60.8194C151.187 60.8194 151.5 60.7543 151.786 60.624C152.073 60.4938 152.32 60.2854 152.529 59.9989C152.737 59.7124 152.919 59.3607 153.076 58.944C153.284 58.423 153.44 57.7849 153.545 57.0295C153.649 56.2481 153.714 55.3755 153.74 54.4117C153.766 53.448 153.779 52.4191 153.779 51.3251C153.779 49.5018 153.727 47.965 153.623 46.7147C153.545 45.4644 153.362 44.4616 153.076 43.7062C152.919 43.2894 152.737 42.9378 152.529 42.6513C152.32 42.3648 152.073 42.1564 151.786 42.0261C151.5 41.8959 151.187 41.8308 150.849 41.8308C150.484 41.8308 150.158 41.8959 149.872 42.0261C149.585 42.1564 149.338 42.3648 149.129 42.6513C148.921 42.9378 148.739 43.2894 148.582 43.7062C148.4 44.2272 148.257 44.8783 148.153 45.6598C148.049 46.4151 147.983 47.2877 147.957 48.2775C147.931 49.2413 147.918 50.2571 147.918 51.3251C147.918 53.1224 147.957 54.6592 148.036 55.9355C148.14 57.1858 148.322 58.1886 148.582 58.944C148.739 59.3607 148.921 59.7124 149.129 59.9989C149.338 60.2854 149.585 60.4938 149.872 60.624C150.158 60.7543 150.484 60.8194 150.849 60.8194ZM161.492 37.6502H173.682V42.4559H166.61V48.9027H173.291V53.7084H166.61V65H161.492V37.6502ZM188.676 65.6251C187.504 65.6251 186.475 65.4428 185.589 65.0781C184.703 64.7135 183.948 64.1795 183.323 63.4762C182.724 62.7729 182.229 61.8873 181.838 60.8194C181.421 59.6993 181.122 58.3709 180.94 56.8341C180.783 55.2713 180.705 53.4349 180.705 51.3251C180.705 49.9185 180.744 48.6422 180.822 47.4961C180.9 46.35 181.018 45.3081 181.174 44.3704C181.356 43.4327 181.578 42.5862 181.838 41.8308C182.229 40.7628 182.737 39.8772 183.362 39.174C183.987 38.4707 184.755 37.9367 185.667 37.572C186.605 37.2074 187.712 37.025 188.988 37.025C190.785 37.025 192.231 37.4027 193.325 38.1581C194.419 38.8874 195.227 40.0205 195.748 41.5573C196.268 43.068 196.529 45.0346 196.529 47.457C196.529 47.5352 196.529 47.6003 196.529 47.6524C196.529 47.7045 196.529 47.7696 196.529 47.8478H191.254C191.254 47.7696 191.254 47.6915 191.254 47.6133C191.254 47.5352 191.254 47.457 191.254 47.3789C191.254 46.0244 191.176 44.9435 191.02 44.136C190.864 43.3285 190.603 42.7425 190.238 42.3778C189.9 42.0131 189.444 41.8308 188.871 41.8308C188.48 41.8308 188.142 41.8959 187.855 42.0261C187.569 42.1564 187.321 42.3517 187.113 42.6122C186.93 42.8727 186.748 43.2113 186.566 43.6281C186.331 44.2532 186.175 45.1779 186.097 46.4021C186.019 47.6263 185.98 49.2673 185.98 51.3251C185.98 53.4089 186.032 55.0759 186.136 56.3262C186.24 57.5765 186.396 58.5402 186.605 59.2175C186.761 59.5821 186.917 59.8817 187.074 60.1161C187.256 60.3505 187.464 60.5329 187.699 60.6631C187.959 60.7673 188.246 60.8194 188.558 60.8194C189.131 60.8194 189.587 60.6371 189.926 60.2724C190.265 59.8817 190.512 59.2826 190.668 58.4751C190.825 57.6676 190.903 56.5867 190.903 55.2322V54.8024H196.177V55.1541C196.177 57.6546 195.917 59.6733 195.396 61.2101C194.875 62.7208 194.067 63.8409 192.973 64.5702C191.879 65.2735 190.447 65.6251 188.676 65.6251ZM198.638 37.6502H203.756V60.1942H210.594V65H198.638V37.6502ZM212.203 37.6502H217.322V65H212.203V37.6502ZM220.541 37.6502H228.629L230.66 55.3885L230.699 61.2101H231.52L231.559 55.3885L233.63 37.6502H241.718V65H237.185V41.4401H236.365L236.169 48.7464L234.02 65H228.238L226.089 48.7464L225.894 41.4401H225.034V65H220.541V37.6502ZM247.6 37.6502H256.977L261.04 65H255.57L252.796 43.7453L252.718 40.854H251.898L251.78 43.7453L249.006 65H243.536L247.6 37.6502ZM247.326 52.4191H257.29L258.696 57.2639H245.881L247.326 52.4191ZM264.73 41.0494H269.809V65H264.73V41.0494ZM259.611 37.6502H274.927V42.4559H259.611V37.6502ZM276.422 37.6502H288.612V42.4559H281.54V48.9027H288.221V53.7084H281.54V60.1942H288.612V65H276.422V37.6502ZM303.835 65.6251C302.663 65.6251 301.634 65.4428 300.748 65.0781C299.863 64.7135 299.107 64.1795 298.482 63.4762C297.883 62.7729 297.388 61.8873 296.997 60.8194C296.581 59.6993 296.281 58.3709 296.099 56.8341C295.942 55.2713 295.864 53.4349 295.864 51.3251C295.864 49.9185 295.903 48.6422 295.982 47.4961C296.06 46.35 296.177 45.3081 296.333 44.3704C296.516 43.4327 296.737 42.5862 296.997 41.8308C297.388 40.7628 297.896 39.8772 298.521 39.174C299.146 38.4707 299.915 37.9367 300.826 37.572C301.764 37.2074 302.871 37.025 304.147 37.025C305.945 37.025 307.39 37.4027 308.484 38.1581C309.578 38.8874 310.386 40.0205 310.907 41.5573C311.428 43.068 311.688 45.0346 311.688 47.457C311.688 47.5352 311.688 47.6003 311.688 47.6524C311.688 47.7045 311.688 47.7696 311.688 47.8478H306.414C306.414 47.7696 306.414 47.6915 306.414 47.6133C306.414 47.5352 306.414 47.457 306.414 47.3789C306.414 46.0244 306.335 44.9435 306.179 44.136C306.023 43.3285 305.762 42.7425 305.398 42.3778C305.059 42.0131 304.603 41.8308 304.03 41.8308C303.64 41.8308 303.301 41.8959 303.014 42.0261C302.728 42.1564 302.48 42.3517 302.272 42.6122C302.09 42.8727 301.907 43.2113 301.725 43.6281C301.491 44.2532 301.334 45.1779 301.256 46.4021C301.178 47.6263 301.139 49.2673 301.139 51.3251C301.139 53.4089 301.191 55.0759 301.295 56.3262C301.399 57.5765 301.556 58.5402 301.764 59.2175C301.92 59.5821 302.077 59.8817 302.233 60.1161C302.415 60.3505 302.624 60.5329 302.858 60.6631C303.119 60.7673 303.405 60.8194 303.718 60.8194C304.291 60.8194 304.747 60.6371 305.085 60.2724C305.424 59.8817 305.671 59.2826 305.827 58.4751C305.984 57.6676 306.062 56.5867 306.062 55.2322V54.8024H311.337V55.1541C311.337 57.6546 311.076 59.6733 310.555 61.2101C310.034 62.7208 309.227 63.8409 308.133 64.5702C307.039 65.2735 305.606 65.6251 303.835 65.6251ZM324.268 37.6502H329.387V65H324.268V37.6502ZM313.797 37.6502H318.916V65H313.797V37.6502ZM317.939 48.9027H325.48V53.7084H317.939V48.9027ZM335.286 37.6502H344.663L348.726 65H343.256L340.482 43.7453L340.404 40.854H339.583L339.466 43.7453L336.692 65H331.222L335.286 37.6502ZM335.012 52.4191H344.975L346.382 57.2639H333.567L335.012 52.4191ZM350.581 37.6502H358.082L360.7 51.833L360.896 61.2101H361.716V37.6502H366.17V65H358.669L356.012 50.7781L355.855 41.4401H355.035V65H350.581V37.6502ZM374.96 65.6251C374.231 65.6251 373.541 65.4819 372.89 65.1954C372.238 64.9349 371.639 64.5051 371.092 63.906C370.545 63.2809 370.089 62.4734 369.725 61.4836C369.334 60.3896 369.048 58.97 368.865 57.2248C368.683 55.4536 368.592 53.474 368.592 51.286C368.592 49.8795 368.631 48.6162 368.709 47.4961C368.787 46.35 368.904 45.3081 369.061 44.3704C369.243 43.4327 369.464 42.5862 369.725 41.8308C370.115 40.7628 370.623 39.8772 371.249 39.174C371.9 38.4446 372.681 37.9106 373.593 37.572C374.504 37.2074 375.572 37.025 376.797 37.025C378.516 37.025 379.935 37.3897 381.055 38.119C382.175 38.8484 383.009 39.9554 383.556 41.4401C384.103 42.8987 384.376 44.7742 384.376 47.0663C384.376 47.0924 384.376 47.1314 384.376 47.1835C384.376 47.2096 384.376 47.2487 384.376 47.3008H379.258C379.258 47.2487 379.258 47.1966 379.258 47.1445C379.258 47.0924 379.258 47.0403 379.258 46.9882C379.258 45.8421 379.167 44.8914 378.985 44.136C378.802 43.3546 378.529 42.7815 378.164 42.4169C377.799 42.0261 377.344 41.8308 376.797 41.8308C376.458 41.8308 376.145 41.8959 375.859 42.0261C375.572 42.1564 375.325 42.3648 375.117 42.6513C374.908 42.9118 374.726 43.2634 374.57 43.7062C374.387 44.2272 374.244 44.8653 374.14 45.6207C374.036 46.3761 373.97 47.2487 373.944 48.2385C373.918 49.2022 373.905 50.2311 373.905 51.3251C373.905 53.1484 373.944 54.6982 374.023 55.9746C374.127 57.2248 374.309 58.2277 374.57 58.983C374.726 59.3998 374.908 59.7514 375.117 60.038C375.325 60.2984 375.559 60.4938 375.82 60.624C376.106 60.7543 376.406 60.8194 376.719 60.8194C377.318 60.8194 377.812 60.598 378.203 60.1552C378.62 59.7124 378.933 59.0742 379.141 58.2407C379.375 57.4072 379.493 56.3783 379.493 55.1541V54.9196H376.093V50.5437H383.986V65H379.493L380.821 60.3505H380C379.584 61.6269 379.141 62.6427 378.672 63.3981C378.229 64.1535 377.695 64.7135 377.07 65.0781C376.471 65.4428 375.768 65.6251 374.96 65.6251ZM387.135 37.6502H399.325V42.4559H392.254V48.9027H398.935V53.7084H392.254V60.1942H399.325V65H387.135V37.6502Z" fill="#131314"/>
</svg>
