<svg width="101" height="100" viewBox="0 0 101 100" fill="none" xmlns="http://www.w3.org/2000/svg">
<path fill-rule="evenodd" clip-rule="evenodd" d="M70.0762 83.9365C63.9265 87.4235 57.016 89.1669 49.3448 89.1669C41.6735 89.1669 34.7314 87.4235 28.5183 83.9365C22.3686 80.4496 17.5503 75.6313 14.0634 69.4816C10.5765 63.332 8.83301 56.4532 8.83301 48.8454V48.7503C8.83301 41.079 10.5765 34.1686 14.0634 28.0189C17.5503 21.8692 22.3686 17.0509 28.5183 13.564C34.668 10.0771 41.6101 8.33359 49.3448 8.33359C57.016 8.33359 63.9265 10.0771 70.0762 13.564C76.2258 17.0509 81.0441 21.8692 84.5311 28.0189C88.018 34.1686 89.7615 41.079 89.7615 48.7503V48.8454C89.7615 56.4532 88.018 63.332 84.5311 69.4816C81.0441 75.6313 76.2258 80.4496 70.0762 83.9365ZM73.7638 50.462L35.2491 32.1081V68.8159L73.7638 50.462Z" fill="white"/>
</svg>
