<svg width="50" height="50" viewBox="0 0 50 50" fill="none" xmlns="http://www.w3.org/2000/svg">
<path d="M32.8229 29.6977H31.1771L30.5938 29.1352C32.6354 26.7602 33.8646 23.6768 33.8646 20.3227C33.8646 12.8435 27.8021 6.78101 20.3229 6.78101C12.8438 6.78101 6.78125 12.8435 6.78125 20.3227C6.78125 27.8018 12.8438 33.8643 20.3229 33.8643C23.6771 33.8643 26.7604 32.6352 29.1354 30.5935L29.6979 31.1768V32.8227L40.1146 43.2185L43.2188 40.1143L32.8229 29.6977ZM20.3229 29.6977C15.1354 29.6977 10.9479 25.5102 10.9479 20.3227C10.9479 15.1352 15.1354 10.9477 20.3229 10.9477C25.5104 10.9477 29.6979 15.1352 29.6979 20.3227C29.6979 25.5102 25.5104 29.6977 20.3229 29.6977Z" />
</svg>
