<svg width="22" height="22" viewBox="0 0 22 22" fill="none" xmlns="http://www.w3.org/2000/svg">
<path d="M15.3807 13.6307H14.459L14.1324 13.3157C15.2757 11.9857 15.964 10.259 15.964 8.3807C15.964 4.19236 12.569 0.797363 8.3807 0.797363C4.19236 0.797363 0.797363 4.19236 0.797363 8.3807C0.797363 12.569 4.19236 15.964 8.3807 15.964C10.259 15.964 11.9857 15.2757 13.3157 14.1324L13.6307 14.459V15.3807L19.464 21.2024L21.2024 19.464L15.3807 13.6307ZM8.3807 13.6307C5.4757 13.6307 3.1307 11.2857 3.1307 8.3807C3.1307 5.4757 5.4757 3.1307 8.3807 3.1307C11.2857 3.1307 13.6307 5.4757 13.6307 8.3807C13.6307 11.2857 11.2857 13.6307 8.3807 13.6307Z" fill="white"/>
</svg>
