<svg width="22" height="22" viewBox="0 0 22 22" fill="none" xmlns="http://www.w3.org/2000/svg">
<path d="M15.3802 13.6307H14.4585L14.1319 13.3157C15.2752 11.9857 15.9635 10.259 15.9635 8.3807C15.9635 4.19236 12.5685 0.797363 8.38021 0.797363C4.19187 0.797363 0.796875 4.19236 0.796875 8.3807C0.796875 12.569 4.19187 15.964 8.38021 15.964C10.2585 15.964 11.9852 15.2757 13.3152 14.1324L13.6302 14.459V15.3807L19.4635 21.2024L21.2019 19.464L15.3802 13.6307ZM8.38021 13.6307C5.47521 13.6307 3.13021 11.2857 3.13021 8.3807C3.13021 5.4757 5.47521 3.1307 8.38021 3.1307C11.2852 3.1307 13.6302 5.4757 13.6302 8.3807C13.6302 11.2857 11.2852 13.6307 8.38021 13.6307Z" fill="#131314"/>
</svg>
