<svg width="28" height="28" viewBox="0 0 28 28" fill="none" xmlns="http://www.w3.org/2000/svg">
<path d="M18.3802 16.6307H17.4585L17.1319 16.3157C18.2752 14.9857 18.9635 13.259 18.9635 11.3807C18.9635 7.19236 15.5685 3.79736 11.3802 3.79736C7.19187 3.79736 3.79688 7.19236 3.79688 11.3807C3.79688 15.569 7.19187 18.964 11.3802 18.964C13.2585 18.964 14.9852 18.2757 16.3152 17.1324L16.6302 17.459V18.3807L22.4635 24.2024L24.2019 22.464L18.3802 16.6307ZM11.3802 16.6307C8.47521 16.6307 6.13021 14.2857 6.13021 11.3807C6.13021 8.4757 8.47521 6.1307 11.3802 6.1307C14.2852 6.1307 16.6302 8.4757 16.6302 11.3807C16.6302 14.2857 14.2852 16.6307 11.3802 16.6307Z" fill="#131314"/>
</svg>
